<?xml version="1.0" encoding="UTF-8" standalone="no"?>
<!DOCTYPE svg PUBLIC "-//W3C//DTD SVG 1.1//EN" "http://www.w3.org/Graphics/SVG/1.1/DTD/svg11.dtd">
<svg width="100%" height="100%" viewBox="0 0 48 48" version="1.1" xmlns="http://www.w3.org/2000/svg" xmlns:xlink="http://www.w3.org/1999/xlink" xml:space="preserve" xmlns:serif="http://www.serif.com/" style="fill-rule:evenodd;clip-rule:evenodd;stroke-linejoin:round;stroke-miterlimit:2;">
    <g id="layer" transform="matrix(1,0,0,1,0,-1004.36)">
        <g id="bg" transform="matrix(1,0,0,1,0,1004.36)">
            <path d="M47.995,40.008L48,10L20.214,47.999L39.992,48.005C44.424,48.006 47.994,44.44 47.995,40.008Z" style="fill:rgb(73,73,73);fill-rule:nonzero;"/>
        </g>
        <path id="bg-fg" d="M8,1004.36C3.568,1004.36 0,1007.93 0,1012.36L0,1044.36C0,1048.79 3.568,1052.36 8,1052.36L20,1052.36C35.512,1052.36 48,1035.41 48,1014.36L48,1012.36C48,1007.93 44.432,1004.36 40,1004.36L8,1004.36Z" style="fill:rgb(49,49,49);fill-rule:nonzero;"/>
        <g id="text-shadow" transform="matrix(1,0,0,1,0.5,0.5)">
            <g id="g4302">
                <path id="path4304" d="M11.987,1016.36C12.541,1016.36 13.013,1016.57 13.402,1017C13.801,1017.41 14.003,1017.91 14,1018.5L14,1025.36L12,1025.36L12,1018.47C12,1018.4 11.966,1018.36 11.898,1018.36L7.102,1018.36C7.034,1018.36 7,1018.4 7,1018.47L7,1025.36L5,1025.36L5,1016.36L11.987,1016.36Z" style="fill-rule:nonzero;"/>
                <path id="path4306" d="M17.013,1016.36L21.987,1016.36C22.541,1016.36 23.013,1016.57 23.402,1017C23.801,1017.41 24,1017.91 24,1018.5L24,1023.22C24,1023.81 23.801,1024.32 23.402,1024.74C23.013,1025.15 22.541,1025.36 21.987,1025.36L17.013,1025.36C16.459,1025.36 15.982,1025.15 15.583,1024.74C15.195,1024.32 15,1023.81 15,1023.22L15,1018.5C15,1017.91 15.195,1017.41 15.583,1017C15.982,1016.57 16.459,1016.36 17.013,1016.36ZM21.898,1018.36L17.102,1018.36C17.034,1018.36 17,1018.4 17,1018.47L17,1023.25C17,1023.33 17.034,1023.36 17.102,1023.36L21.898,1023.36C21.966,1023.36 22,1023.33 22,1023.25L22,1018.47C22,1018.4 21.966,1018.36 21.898,1018.36Z" style="fill-rule:nonzero;"/>
            </g>
            <g id="g4308">
                <path id="path4310" d="M12,1036.92L16.768,1028.36L19,1028.36L13,1039.36L11,1039.36L5,1028.36L7.232,1028.36L12,1036.92Z" style="fill-rule:nonzero;"/>
                <path id="path4312" d="M29,1036.36L29,1028.36L31,1028.36L31,1039.36L29,1039.36L22,1031.36L22,1039.36L20,1039.36L20,1028.36L22,1028.36L29,1036.36Z" style="fill-rule:nonzero;"/>
                <path id="path4314" d="M43,1030.36L34.102,1030.36C34.034,1030.36 34,1030.4 34,1030.47L34,1037.26C34,1037.33 34.034,1037.36 34.102,1037.36L43,1037.36L43,1039.36L34.028,1039.36C33.464,1039.36 32.982,1039.16 32.583,1038.75C32.194,1038.33 32,1037.83 32,1037.24L32,1030.49C32,1029.89 32.194,1029.4 32.583,1028.99C32.982,1028.57 33.464,1028.36 34.028,1028.36L43,1028.36L43,1030.36Z" style="fill-rule:nonzero;"/>
            </g>
        </g>
        <g id="text">
            <g id="g4282">
                <path id="path4143" d="M11.987,1016.36C12.541,1016.36 13.013,1016.57 13.402,1017C13.801,1017.41 14.003,1017.91 14,1018.5L14,1025.36L12,1025.36L12,1018.47C12,1018.4 11.966,1018.36 11.898,1018.36L7.102,1018.36C7.034,1018.36 7,1018.4 7,1018.47L7,1025.36L5,1025.36L5,1016.36L11.987,1016.36Z" style="fill:rgb(0,128,0);fill-rule:nonzero;"/>
                <path id="path4145" d="M17.013,1016.36L21.987,1016.36C22.541,1016.36 23.013,1016.57 23.402,1017C23.801,1017.41 24,1017.91 24,1018.5L24,1023.22C24,1023.81 23.801,1024.32 23.402,1024.74C23.013,1025.15 22.541,1025.36 21.987,1025.36L17.013,1025.36C16.459,1025.36 15.982,1025.15 15.583,1024.74C15.195,1024.32 15,1023.81 15,1023.22L15,1018.5C15,1017.91 15.195,1017.41 15.583,1017C15.982,1016.57 16.459,1016.36 17.013,1016.36ZM21.898,1018.36L17.102,1018.36C17.034,1018.36 17,1018.4 17,1018.47L17,1023.25C17,1023.33 17.034,1023.36 17.102,1023.36L21.898,1023.36C21.966,1023.36 22,1023.33 22,1023.25L22,1018.47C22,1018.4 21.966,1018.36 21.898,1018.36Z" style="fill:rgb(0,128,0);fill-rule:nonzero;"/>
            </g>
            <g id="g4286">
                <path id="path4147" d="M12,1036.92L16.768,1028.36L19,1028.36L13,1039.36L11,1039.36L5,1028.36L7.232,1028.36L12,1036.92Z" style="fill:rgb(255,255,0);fill-rule:nonzero;"/>
                <path id="path4149" d="M29,1036.36L29,1028.36L31,1028.36L31,1039.36L29,1039.36L22,1031.36L22,1039.36L20,1039.36L20,1028.36L22,1028.36L29,1036.36Z" style="fill:rgb(255,255,0);fill-rule:nonzero;"/>
                <path id="path4151" d="M43,1030.36L34.102,1030.36C34.034,1030.36 34,1030.4 34,1030.47L34,1037.26C34,1037.33 34.034,1037.36 34.102,1037.36L43,1037.36L43,1039.36L34.028,1039.36C33.464,1039.36 32.982,1039.16 32.583,1038.75C32.194,1038.33 32,1037.83 32,1037.24L32,1030.49C32,1029.89 32.194,1029.4 32.583,1028.99C32.982,1028.57 33.464,1028.36 34.028,1028.36L43,1028.36L43,1030.36Z" style="fill:rgb(255,255,0);fill-rule:nonzero;"/>
            </g>
        </g>
    </g>
</svg>
